<?xml version="1.0" encoding="UTF-8" standalone="no"?>
<!-- Created with Inkscape (http://www.inkscape.org/) -->

<svg
   xmlns:dc="http://purl.org/dc/elements/1.1/"
   xmlns:cc="http://creativecommons.org/ns#"
   xmlns:rdf="http://www.w3.org/1999/02/22-rdf-syntax-ns#"
   xmlns:svg="http://www.w3.org/2000/svg"
   xmlns="http://www.w3.org/2000/svg"
   version="1.0"
   width="25.458406"
   height="25.458401"
   viewBox="0 0 25.416046 25.415999"
   id="Layer_1"
   xml:space="preserve"><metadata
   id="metadata36"><rdf:RDF><cc:Work
       rdf:about=""><dc:format>image/svg+xml</dc:format><dc:type
         rdf:resource="http://purl.org/dc/dcmitype/StillImage" /><dc:title></dc:title></cc:Work></rdf:RDF></metadata><defs
   id="defs1659" />






<g
   transform="matrix(0.04152813,0,0,0.04152819,0.24958403,0.24909403)"
   id="g1600"
   style="fill:#e3e3d8;fill-opacity:1;stroke:#e5e5e5;stroke-width:12.01998997;stroke-linejoin:miter;stroke-miterlimit:4;stroke-opacity:1;stroke-dasharray:none">
		<path
   d="m 80.75293,0 c 34.67578,10.583496 71.48486,16.276856 109.62402,16.276856 38.13868,0 74.94727,-5.69336 109.62305,-16.2763677 34.67578,10.5830077 71.48438,16.2763677 109.62305,16.2763677 38.13867,0 74.94824,-5.69336 109.62402,-16.276856 C 569.8125,63.908203 600,144.67822 600,232.5 600,413.92383 471.16992,565.25391 300,599.99902 128.83008,565.25391 0,413.92383 0,232.5 0,144.67822 30.187988,63.907715 80.75293,0 z"
   id="path1602"
   style="fill:#e3e3d8;fill-opacity:1;stroke:#e5e5e5;stroke-width:12.01998997;stroke-linejoin:miter;stroke-miterlimit:4;stroke-opacity:1;stroke-dasharray:none" />
		
			<path
   d="m 80.75293,0 c 34.67578,10.583496 71.48486,16.276856 109.62402,16.276856 38.13868,0 74.94727,-5.69336 109.62305,-16.2763677 34.67578,10.5830077 71.48438,16.2763677 109.62305,16.2763677 38.13867,0 74.94824,-5.69336 109.62402,-16.276856 C 569.8125,63.908203 600,144.67822 600,232.5 600,413.92383 471.16992,565.25391 300,599.99902 128.83008,565.25391 0,413.92383 0,232.5 0,144.67822 30.187988,63.907715 80.75293,0 z"
   id="path1604"
   style="fill:#e3e3d8;fill-opacity:1;stroke:#e5e5e5;stroke-width:12.01998997;stroke-linecap:round;stroke-linejoin:miter;stroke-miterlimit:4;stroke-opacity:1;stroke-dasharray:none" />
	</g><g
   transform="matrix(0.04189241,0,0,0.04202516,0.14030403,0.07574403)"
   id="g1606"
   style="fill:#777ea5;fill-opacity:1;stroke:none">
		<path
   d="m 15,232.5 c 0,-31.979 4.169434,-62.98389 11.994629,-92.50098 l 546.011231,0 C 580.83008,169.51611 585,200.521 585,232.5 585,405.60547 462.82617,550.17188 300,584.67676 137.17432,550.17188 15,405.60547 15,232.5 z"
   id="path1608"
   style="fill:#777ea5;fill-opacity:1;stroke:none" />
	</g><g
   transform="matrix(0.04211922,0,0,0.04272665,0.07226403,0.09933403)"
   id="g1610"
   style="fill:#d26258;fill-opacity:1;stroke:none">
		<path
   d="M 31.324219,124.99902 C 43.579102,85.77832 62.362793,49.44043 86.402832,17.259766 c 33.101558,9.132812 67.967778,14.012695 103.974118,14.012695 38.06055,0 74.84766,-5.45166 109.62305,-15.617676 34.77539,10.166016 71.5625,15.617676 109.62305,15.617676 36.00586,0 70.87304,-4.879883 103.97461,-14.012695 24.03906,32.180664 42.82324,68.518554 55.07812,107.739254 l -537.351561,0 0,0 z"
   id="path1612"
   style="fill:#af1e2d;fill-opacity:1;stroke:none" />
	</g><path
   d="m 4.757464,4.921014 0,-2.59548 0.36361,0 0,2.59548 -0.36361,0 z m 2.10903,0 -0.80076,-1.73934 0,1.73934 -0.37139,0 0,-2.59548 0.37139,0 0.71175,1.55729 0,-1.55729 0.3714,0 0,2.59548 -0.28239,0 z m 1.49114,-2.25064 0,2.25064 -0.37518,0 0,-2.25064 -0.47197,0 0,-0.34484 1.31913,0 0,0.34484 -0.47198,0 z m 0.82732,2.25064 0,-2.59548 1.21855,0 0,0.36423 -0.84715,0 0,0.65457 0.53773,0 0,0.35643 -0.53773,0 0,0.85614 0.94773,0 0,0.36411 -1.31913,0 z m 2.82443,0 -0.34436,-1.22025 -0.35581,0 0,1.22025 -0.3714,0 0,-2.59548 0.77372,0 c 0.10058,0 0.19278,0.0168 0.2766,0.0504 0.0838,0.0336 0.15603,0.0801 0.21663,0.1395 0.0606,0.0594 0.10702,0.13238 0.13925,0.21888 0.0322,0.0865 0.0483,0.18141 0.0483,0.28473 0,0.15494 -0.0309,0.28666 -0.0928,0.39514 -0.0619,0.10849 -0.15475,0.18594 -0.27855,0.23236 l 0.3714,1.27451 -0.38297,0 z m 0.0194,-1.90201 c 0,-0.10072 -0.031,-0.18078 -0.0928,-0.24016 -0.0619,-0.0594 -0.14314,-0.0891 -0.24372,-0.0891 l -0.38296,0 0,0.65457 0.38296,0 c 0.1083,1e-5 0.19146,-0.0278 0.24951,-0.0833 0.058,-0.0555 0.0871,-0.13621 0.0871,-0.24205 l 0,0 z m 2.11706,1.19306 c 0,0.10592 -0.0187,0.20471 -0.0561,0.29637 -0.0374,0.0917 -0.089,0.17106 -0.15471,0.23821 -0.0658,0.0672 -0.14185,0.12074 -0.22826,0.16078 -0.0864,0.04 -0.17992,0.06 -0.2805,0.06 -0.11349,0 -0.21535,-0.022 -0.30558,-0.0658 -0.0902,-0.0439 -0.1663,-0.10329 -0.2282,-0.17816 -0.0619,-0.0749 -0.10961,-0.16139 -0.14314,-0.25955 -0.0335,-0.0982 -0.0503,-0.20016 -0.0503,-0.30601 l 0.36361,0 c 0,0.0542 0.007,0.1078 0.0213,0.16072 0.0142,0.0529 0.0361,0.1007 0.0657,0.14334 0.0297,0.0426 0.0671,0.0769 0.11221,0.10267 0.0451,0.0258 0.0999,0.0387 0.16439,0.0387 0.049,0 0.0961,-0.0103 0.14125,-0.031 0.0451,-0.0206 0.0838,-0.0491 0.11605,-0.0852 0.0322,-0.0362 0.058,-0.0781 0.0773,-0.1259 0.0193,-0.0478 0.029,-0.0975 0.029,-0.14919 0,-0.0749 -0.0155,-0.14135 -0.0464,-0.19944 -0.0309,-0.0581 -0.0851,-0.11683 -0.16244,-0.17626 -0.0129,-0.0129 -0.0181,-0.02 -0.0155,-0.0213 0.003,-10e-4 -0.005,-0.008 -0.0232,-0.0213 -0.0181,-0.0129 -0.0561,-0.0381 -0.11416,-0.0755 -0.058,-0.0375 -0.15282,-0.10137 -0.28433,-0.19169 -0.1057,-0.0723 -0.18499,-0.15695 -0.23788,-0.25382 -0.0529,-0.0968 -0.0793,-0.20337 -0.0793,-0.31954 0,-0.093 0.0168,-0.18016 0.0503,-0.2615 0.0335,-0.0813 0.0806,-0.15299 0.14119,-0.21498 0.0606,-0.062 0.13088,-0.11041 0.21085,-0.14529 0.08,-0.0349 0.16633,-0.0523 0.25912,-0.0523 0.0929,0 0.17864,0.0168 0.2573,0.0504 0.0787,0.0336 0.147,0.0801 0.205,0.1395 0.058,0.0594 0.10442,0.13045 0.13925,0.21309 0.0348,0.0826 0.0535,0.17301 0.0561,0.27113 l -0.35593,0 c -0.005,-0.0904 -0.036,-0.16271 -0.0928,-0.21693 -0.0568,-0.0542 -0.1264,-0.0813 -0.20896,-0.0813 -0.0851,1e-5 -0.15726,0.0284 -0.21657,0.0852 -0.0593,0.0568 -0.089,0.12784 -0.089,0.21303 0,0.0645 0.0168,0.11877 0.0503,0.16267 0.0335,0.0439 0.098,0.093 0.19337,0.14718 0.2502,0.14462 0.43267,0.29182 0.54742,0.44161 0.11475,0.14978 0.17212,0.31893 0.17212,0.50745 l 0,0 z m 1.07972,-1.54169 0,2.25064 -0.37518,0 0,-2.25064 -0.47197,0 0,-0.34484 1.31913,0 0,0.34484 -0.47198,0 z m 1.91046,2.25064 -0.1818,-0.70895 -0.5571,0 -0.17011,0.70895 -0.37529,0 0.64599,-2.59548 0.36372,0 0.64599,2.59548 -0.3714,0 z m -0.46418,-1.82068 -0.18181,0.74762 0.3714,0 -0.18959,-0.74762 z m 1.84033,-0.42996 0,2.25064 -0.37517,0 0,-2.25064 -0.47198,0 0,-0.34484 1.31913,0 0,0.34484 -0.47198,0 z m 0.82732,2.25064 0,-2.59548 1.21855,0 0,0.36423 -0.84715,0 0,0.65457 0.53774,0 0,0.35643 -0.53774,0 0,0.85614 0.94774,0 0,0.36411 -1.31914,0 z"
   id="text6060"
   style="font-size:93.21589661px;font-style:normal;font-variant:normal;font-weight:normal;font-stretch:normal;text-align:center;line-height:125%;writing-mode:lr-tb;text-anchor:middle;fill:#ffffff;fill-opacity:1;font-family:Roadgeek 2005 Series C" />
</svg>