<?xml version="1.0" encoding="UTF-8" standalone="no"?>
<!-- Generator: Adobe Illustrator 12.0.0, SVG Export Plug-In . SVG Version: 6.00 Build 51448)  -->

<svg
   xmlns:dc="http://purl.org/dc/elements/1.1/"
   xmlns:cc="http://creativecommons.org/ns#"
   xmlns:rdf="http://www.w3.org/1999/02/22-rdf-syntax-ns#"
   xmlns:svg="http://www.w3.org/2000/svg"
   xmlns="http://www.w3.org/2000/svg"
   xmlns:sodipodi="http://sodipodi.sourceforge.net/DTD/sodipodi-0.dtd"
   xmlns:inkscape="http://www.inkscape.org/namespaces/inkscape"
   version="1.1"
   id="Layer_1"
   width="25.008465"
   height="25.008303"
   viewBox="0 0 25.008465 25.008303"
   overflow="visible"
   enable-background="new 0 0 384 384"
   xml:space="preserve"
   inkscape:version="0.48.3.1 r9886"
   sodipodi:docname="US_blank_(CA).svg"
   style="overflow:visible"><metadata
   id="metadata3012"><rdf:RDF><cc:Work
       rdf:about=""><dc:format>image/svg+xml</dc:format><dc:type
         rdf:resource="http://purl.org/dc/dcmitype/StillImage" /></cc:Work></rdf:RDF></metadata><defs
   id="defs3010" /><sodipodi:namedview
   pagecolor="#ffffff"
   bordercolor="#666666"
   borderopacity="1"
   objecttolerance="10"
   gridtolerance="10"
   guidetolerance="10"
   inkscape:pageopacity="0"
   inkscape:pageshadow="2"
   inkscape:window-width="1301"
   inkscape:window-height="744"
   id="namedview3008"
   showgrid="false"
   inkscape:zoom="1.3203125"
   inkscape:cx="-95.80346"
   inkscape:cy="12.50407"
   inkscape:window-x="65"
   inkscape:window-y="24"
   inkscape:window-maximized="1"
   inkscape:current-layer="Layer_1"
   fit-margin-top="0"
   fit-margin-left="0"
   fit-margin-right="0"
   fit-margin-bottom="0" />
<g
   id="g2986"
   transform="matrix(0.06510417,0,0,0.06510417,0.00423202,0.00423202)">
	<g
   id="g2988">
		<path
   clip-rule="evenodd"
   d="M 192,0.003418 C 177.13184,14.054688 157.07227,22.669922 135,22.669922 112.92676,22.669922 92.868164,14.052246 78,0 L 0,80.771484 c 19.416016,14.393067 32,37.479006 32,63.504396 0,16.48779 -5.051758,31.79736 -13.69043,44.46289 C 6.793457,205.58789 0,226.05078 0,248 c 0,57.78711 46.680176,104.66992 104.39063,104.99805 33.27783,0 63.58496,11.61132 87.60937,31.00195 24.02441,-19.39063 54.33203,-31.00195 87.60937,-31.00195 C 337.31934,352.66992 384,305.78711 384,248 384,226.05078 377.20703,205.58789 365.69043,188.73877 357.05176,176.07324 352,160.76367 352,144.27588 352,118.25049 364.58398,95.164551 384,80.771484 L 306,0 c -14.86816,14.052246 -34.92676,22.669922 -57,22.669922 -22.07227,0 -42.13184,-8.615234 -57,-22.666504 z"
   id="path2990"
   style="fill:#e3e3d8;fill-opacity:0;fill-rule:evenodd"
   inkscape:connector-curvature="0" />
		
			<path
   clip-rule="evenodd"
   stroke-miterlimit="3.863693"
   d="M 192,0.003418 C 177.13184,14.054688 157.07227,22.669922 135,22.669922 112.92676,22.669922 92.868164,14.052246 78,0 L 0,80.771484 c 19.416016,14.393067 32,37.479006 32,63.504396 0,16.48779 -5.051758,31.79736 -13.69043,44.46289 C 6.793457,205.58789 0,226.05078 0,248 c 0,57.78711 46.680176,104.66992 104.39063,104.99805 33.27783,0 63.58496,11.61132 87.60937,31.00195 24.02441,-19.39063 54.33203,-31.00195 87.60937,-31.00195 C 337.31934,352.66992 384,305.78711 384,248 384,226.05078 377.20703,205.58789 365.69043,188.73877 357.05176,176.07324 352,160.76367 352,144.27588 352,118.25049 364.58398,95.164551 384,80.771484 L 306,0 c -14.86816,14.052246 -34.92676,22.669922 -57,22.669922 -22.07227,0 -42.13184,-8.615234 -57,-22.666504 z"
   id="path2992"
   style="fill:#e5e5e5;fill-opacity:1;fill-rule:evenodd;stroke:#000000;stroke-width:0;stroke-linecap:round;stroke-linejoin:round;stroke-miterlimit:3.863693"
   inkscape:connector-curvature="0" />
	</g>
	<g
   id="g2994">
		<path
   clip-rule="evenodd"
   d="m 303.87207,28.027344 50.36621,52.155761 C 339.74805,97.525391 331,119.88574 331,144.27588 c 0,20.84326 6.40527,40.26269 17.34766,56.3042 C 357.56543,214.06836 363,230.43164 363,248 c 0,46.22949 -37.34375,83.73633 -83.50977,83.99902 C 247.12109,332.02148 217.1582,341.61621 192,358.06055 166.81152,341.5957 136.80469,331.99805 104.39063,331.99805 58.279785,331.67285 21,294.19043 21,248 21,230.43262 26.43457,214.06836 35.652344,200.58008 46.594238,184.53857 53,165.11914 53,144.27588 53,119.88525 44.252441,97.525391 29.761719,80.183106 L 80.12793,28.027344 C 96.056641,37.936523 114.87451,43.669922 135,43.669922 c 21.02832,0 40.62988,-6.258789 57,-17 16.37012,10.741211 35.97168,17 57,17 20.12598,0 38.94336,-5.733399 54.87207,-15.642578 z M 249,31.669922 c 21.25488,0 40.83789,-7.217774 56.41211,-19.322266 l 65.40332,67.726563 C 353.70605,96.120117 343,118.94775 343,144.27588 c 0,18.35449 5.63184,35.42529 15.25781,49.5376 C 368.78906,209.22266 375,227.92773 375,248 c 0,52.83398 -42.67871,95.69922 -95.44141,95.99805 C 246.71582,344.00977 216.57715,354.6543 192,372.65039 167.41064,354.64551 137.25244,343.99805 104.39062,343.99805 51.651367,343.67187 9,300.81641 9,248 9,227.92773 15.210938,209.22266 25.742187,193.81348 35.368164,179.70117 41,162.63037 41,144.27588 41,118.94775 30.293457,96.120117 13.18457,80.074219 L 78.587891,12.347656 C 94.162598,24.452148 113.74512,31.669922 135,31.669922 c 21.52197,0 41.33105,-7.398926 57,-19.780273 15.66895,12.381347 35.47754,19.780273 57,19.780273 z"
   id="path2996"
   inkscape:connector-curvature="0"
   style="fill-rule:evenodd" />
	</g>
	<g
   id="g2998">
		<g
   id="g3000">
			<path
   clip-rule="evenodd"
   d="m 187.34033,94.325684 c 0,5.721196 -1.76758,10.430176 -5.30224,14.127926 -3.53516,3.69776 -8.04688,5.54639 -13.53516,5.54639 -5.48828,0 -10,-1.84863 -13.53467,-5.54639 -3.53467,-3.69775 -5.30224,-8.40673 -5.30224,-14.127926 V 66.418945 h 8.37207 v 27.906739 c 0,2.37207 0.48828,4.395507 1.46484,6.069826 2.04687,3.39551 5.04687,5.09326 9,5.09326 4,0 7,-1.69775 9,-5.09326 1.02344,-1.674319 1.53516,-3.697756 1.53516,-6.069826 V 66.418945 h 8.30224 v 27.906739 z"
   id="path3002"
   inkscape:connector-curvature="0"
   style="fill-rule:evenodd" />
		</g>
		<g
   id="g3004">
			<path
   clip-rule="evenodd"
   d="m 234.33398,99.513672 c 0,4.688968 -2.18554,8.333008 -6.55761,10.933598 -3.44239,2.08935 -7.37207,3.13427 -11.79102,3.13427 -7.6748,0 -14.11621,-2.98535 -19.32519,-8.95703 l 6.69726,-5.205565 c 3.30274,3.906735 7.46485,5.860355 12.48828,5.860355 2.93067,0 5.36035,-0.58057 7.29102,-1.74121 1.92969,-1.16065 2.89453,-2.59961 2.89453,-4.317875 0,-1.949707 -1,-3.365723 -3,-4.248535 -0.37109,-0.186036 -2.23242,-0.789063 -5.58105,-1.810059 l -2.09278,-0.626953 -2.16308,-0.487305 -2.30176,-0.696777 c -4.5586,-1.299805 -7.60547,-2.809082 -9.13965,-4.526855 -1.9541,-2.228516 -2.93066,-4.852051 -2.93066,-7.869629 0,-3.854004 1.47656,-6.976563 4.43066,-9.367676 C 206.20605,67.195801 210.07812,66 214.86914,66 c 6.92969,0 12.7207,2.405762 17.37207,7.216797 l -6.20996,5.550781 c -2.92969,-3.069824 -6.65039,-4.604492 -11.16211,-4.604492 -5.02344,0 -7.53516,1.578125 -7.53516,4.735352 0,1.300293 0.51172,2.310058 1.53516,3.029785 1.02344,0.720215 2.95313,1.404785 5.79102,2.054687 6.18554,1.34668 10.51074,2.646485 12.97656,3.899903 2.0459,1.067871 3.67383,2.634765 4.88281,4.701172 1.20996,2.065917 1.81445,4.375976 1.81445,6.929687 z"
   id="path3006"
   inkscape:connector-curvature="0"
   style="fill-rule:evenodd" />
		</g>
	</g>
</g>
</svg>